<mxfile host="app.diagrams.net" modified="2023-10-06T00:38:40.982Z" agent="Mozilla/5.0 (Windows NT 10.0; Win64; x64) AppleWebKit/537.36 (KHTML, like Gecko) Chrome/117.0.0.0 Safari/537.36 Edg/117.0.2045.47" etag="rFJIns0LRlPheoIW8nco" version="21.8.2" type="device">
  <diagram name="Página-1" id="PTi4OOtpOOI2t1gRGnpw">
    <mxGraphModel dx="1666" dy="759" grid="0" gridSize="10" guides="1" tooltips="1" connect="1" arrows="1" fold="1" page="0" pageScale="1" pageWidth="827" pageHeight="1169" math="0" shadow="0">
      <root>
        <mxCell id="0" />
        <mxCell id="1" parent="0" />
        <mxCell id="RKo-ZpW2EVdhrHUmOvBE-2" value="" style="rounded=0;whiteSpace=wrap;html=1;" parent="1" vertex="1">
          <mxGeometry x="185" y="56" width="261" height="490" as="geometry" />
        </mxCell>
        <mxCell id="RKo-ZpW2EVdhrHUmOvBE-8" style="edgeStyle=orthogonalEdgeStyle;rounded=0;orthogonalLoop=1;jettySize=auto;html=1;entryX=0;entryY=0.5;entryDx=0;entryDy=0;" parent="1" source="RKo-ZpW2EVdhrHUmOvBE-1" target="RKo-ZpW2EVdhrHUmOvBE-3" edge="1">
          <mxGeometry relative="1" as="geometry" />
        </mxCell>
        <mxCell id="RKo-ZpW2EVdhrHUmOvBE-1" value="&lt;font style=&quot;font-size: 15px;&quot;&gt;usuário&lt;/font&gt;" style="shape=umlActor;verticalLabelPosition=bottom;verticalAlign=top;html=1;" parent="1" vertex="1">
          <mxGeometry x="63" y="283.5" width="30" height="60" as="geometry" />
        </mxCell>
        <mxCell id="RKo-ZpW2EVdhrHUmOvBE-5" value="" style="edgeStyle=orthogonalEdgeStyle;rounded=0;orthogonalLoop=1;jettySize=auto;html=1;dashed=1;dashPattern=12 12;" parent="1" source="RKo-ZpW2EVdhrHUmOvBE-3" target="RKo-ZpW2EVdhrHUmOvBE-4" edge="1">
          <mxGeometry relative="1" as="geometry" />
        </mxCell>
        <mxCell id="RKo-ZpW2EVdhrHUmOvBE-6" value="&lt;font style=&quot;font-size: 13px;&quot;&gt;&amp;lt;&amp;lt;include&amp;gt;&amp;gt;&lt;/font&gt;" style="edgeLabel;html=1;align=center;verticalAlign=middle;resizable=0;points=[];" parent="RKo-ZpW2EVdhrHUmOvBE-5" vertex="1" connectable="0">
          <mxGeometry x="-0.2421" relative="1" as="geometry">
            <mxPoint as="offset" />
          </mxGeometry>
        </mxCell>
        <mxCell id="RKo-ZpW2EVdhrHUmOvBE-10" style="edgeStyle=orthogonalEdgeStyle;rounded=0;orthogonalLoop=1;jettySize=auto;html=1;entryX=0.5;entryY=1;entryDx=0;entryDy=0;dashed=1;dashPattern=12 12;" parent="1" source="RKo-ZpW2EVdhrHUmOvBE-3" target="RKo-ZpW2EVdhrHUmOvBE-9" edge="1">
          <mxGeometry relative="1" as="geometry" />
        </mxCell>
        <mxCell id="RKo-ZpW2EVdhrHUmOvBE-11" value="&lt;font style=&quot;font-size: 13px;&quot;&gt;&amp;lt;&amp;lt;include&amp;gt;&amp;gt;&lt;/font&gt;" style="edgeLabel;html=1;align=center;verticalAlign=middle;resizable=0;points=[];" parent="RKo-ZpW2EVdhrHUmOvBE-10" vertex="1" connectable="0">
          <mxGeometry x="-0.087" y="2" relative="1" as="geometry">
            <mxPoint as="offset" />
          </mxGeometry>
        </mxCell>
        <mxCell id="RKo-ZpW2EVdhrHUmOvBE-3" value="&lt;font style=&quot;font-size: 15px;&quot;&gt;Executar registro de datas da UFC no e-mail&lt;/font&gt;" style="ellipse;whiteSpace=wrap;html=1;" parent="1" vertex="1">
          <mxGeometry x="229" y="266" width="170" height="95" as="geometry" />
        </mxCell>
        <mxCell id="RKo-ZpW2EVdhrHUmOvBE-17" style="edgeStyle=orthogonalEdgeStyle;rounded=0;orthogonalLoop=1;jettySize=auto;html=1;" parent="1" source="RKo-ZpW2EVdhrHUmOvBE-4" target="RKo-ZpW2EVdhrHUmOvBE-15" edge="1">
          <mxGeometry relative="1" as="geometry" />
        </mxCell>
        <mxCell id="RKo-ZpW2EVdhrHUmOvBE-4" value="&lt;font style=&quot;font-size: 15px;&quot;&gt;Registrar datas no e-mail&lt;/font&gt;" style="ellipse;whiteSpace=wrap;html=1;" parent="1" vertex="1">
          <mxGeometry x="229" y="407" width="170" height="95" as="geometry" />
        </mxCell>
        <mxCell id="RKo-ZpW2EVdhrHUmOvBE-13" style="edgeStyle=orthogonalEdgeStyle;rounded=0;orthogonalLoop=1;jettySize=auto;html=1;" parent="1" source="RKo-ZpW2EVdhrHUmOvBE-9" target="RKo-ZpW2EVdhrHUmOvBE-12" edge="1">
          <mxGeometry relative="1" as="geometry" />
        </mxCell>
        <mxCell id="RKo-ZpW2EVdhrHUmOvBE-9" value="&lt;font style=&quot;font-size: 15px;&quot;&gt;Consumir dados do site da UFC&lt;/font&gt;" style="ellipse;whiteSpace=wrap;html=1;" parent="1" vertex="1">
          <mxGeometry x="229" y="125" width="170" height="95" as="geometry" />
        </mxCell>
        <mxCell id="RKo-ZpW2EVdhrHUmOvBE-12" value="&lt;font style=&quot;font-size: 15px;&quot;&gt;site da UFC&lt;/font&gt;" style="shape=umlActor;verticalLabelPosition=bottom;verticalAlign=top;html=1;" parent="1" vertex="1">
          <mxGeometry x="552" y="143" width="30" height="60" as="geometry" />
        </mxCell>
        <mxCell id="RKo-ZpW2EVdhrHUmOvBE-15" value="&lt;font style=&quot;font-size: 15px;&quot;&gt;serviço de e-mail&lt;/font&gt;" style="shape=umlActor;verticalLabelPosition=bottom;verticalAlign=top;html=1;" parent="1" vertex="1">
          <mxGeometry x="552" y="424.5" width="30" height="60" as="geometry" />
        </mxCell>
        <mxCell id="RKo-ZpW2EVdhrHUmOvBE-19" value="&lt;span style=&quot;font-size: 15px;&quot;&gt;&lt;b&gt;Spidey&lt;/b&gt;&lt;/span&gt;" style="text;html=1;strokeColor=none;fillColor=none;align=center;verticalAlign=middle;whiteSpace=wrap;rounded=0;" parent="1" vertex="1">
          <mxGeometry x="242.5" y="63" width="146" height="30" as="geometry" />
        </mxCell>
      </root>
    </mxGraphModel>
  </diagram>
</mxfile>
